<svg width="74" height="74" viewBox="0 0 74 74" fill="none" xmlns="http://www.w3.org/2000/svg">
<path d="M36.9999 0.792969C27.4005 0.803702 18.1974 4.62179 11.4096 11.4096C4.62179 18.1974 0.803702 27.4005 0.792969 36.9999C0.809052 46.5976 4.62886 55.7976 11.4155 62.5842C18.2021 69.3709 27.4021 73.1907 36.9999 73.2068C46.6025 73.2068 55.8119 69.3921 62.602 62.602C69.3921 55.8119 73.2068 46.6025 73.2068 36.9999C73.2068 27.3972 69.3921 18.1878 62.602 11.3977C55.8119 4.60761 46.6025 0.792969 36.9999 0.792969ZM59.0223 57.8927C56.9889 53.7912 53.8497 50.3396 49.959 47.9273C46.0682 45.515 41.5807 44.238 37.0028 44.2404C32.4249 44.2428 27.9388 45.5245 24.0506 47.9409C20.1623 50.3573 17.0268 53.8122 14.9977 57.9159C9.58376 52.3009 6.56707 44.7997 6.58607 36.9999C6.58607 28.9336 9.79037 21.1978 15.4941 15.4941C21.1978 9.79037 28.9336 6.58607 36.9999 6.58607C45.0661 6.58607 52.802 9.79037 58.5057 15.4941C64.2094 21.1978 67.4137 28.9336 67.4137 36.9999C67.4318 44.7888 64.423 52.2801 59.0223 57.8927ZM36.9999 15.2757C34.4219 15.2757 31.9018 16.0402 29.7583 17.4724C27.6148 18.9047 25.9441 20.9404 24.9576 23.3221C23.971 25.7039 23.7129 28.3247 24.2158 30.8531C24.7188 33.3816 25.9602 35.7041 27.7831 37.527C29.606 39.3499 31.9285 40.5913 34.457 41.0942C36.9854 41.5972 39.6062 41.3391 41.9879 40.3525C44.3697 39.366 46.4054 37.6953 47.8376 35.5518C49.2699 33.4083 50.0343 30.8882 50.0343 28.3102C50.0343 26.5985 49.6972 24.9035 49.0422 23.3221C48.3871 21.7407 47.427 20.3038 46.2166 19.0934C45.0063 17.8831 43.5694 16.923 41.9879 16.2679C40.4065 15.6129 38.7116 15.2757 36.9999 15.2757Z" fill="white"/>
</svg>
